<svg height="215" viewBox="0 0 215 215" width="215" xmlns="http://www.w3.org/2000/svg">
<rect width="100%" height="100%" fill="#ffffff"/>
<path d="m62 25.5 39.5 100.25a3.392 3.392 0 0 0 2.128 1.965 4.677 4.677 0 0 0 .622.16q1.666.312 2.638-.849a3.598 3.598 0 0 0 .362-.526l49.25-102.5q1.25-4.25 2.5-9.5a256.543 256.543 0 0 0 .868-3.762q.332-1.494.615-2.866a147.113 147.113 0 0 0 .517-2.622 9.882 9.882 0 0 1 .346-1.186q.446-1.211 1.111-1.712a1.693 1.693 0 0 1 1.043-.352h9a125.567 125.567 0 0 0 9.717-.391 149.792 149.792 0 0 0 6.158-.609q6.78-.81 10.857-.964a47.043 47.043 0 0 1 1.768-.036 10.917 10.917 0 0 1 .855.037q.955.075 2.22.306a35.001 35.001 0 0 1 .175.032 3.578 3.578 0 0 1 .84.257q1.072.494 1.154 1.67a2.864 2.864 0 0 1 .006.198 3.562 3.562 0 0 1 -.235 1.321q-.334.843-1.14 1.429a9.172 9.172 0 0 1 -.836.531q-1.476.844-4.289 1.969-3.25 1.25-7.25 2.75a187.268 187.268 0 0 0 -4.804 1.875 157.467 157.467 0 0 0 -2.696 1.125 9.488 9.488 0 0 0 -3.684 2.666 11.658 11.658 0 0 0 -.566.709 9.004 9.004 0 0 0 -1.415 2.791 8.18 8.18 0 0 0 -.335 2.334 872.489 872.489 0 0 0 .244 21.045 718.629 718.629 0 0 0 .381 11.83 2457.468 2457.468 0 0 0 1.008 22.359 2163.584 2163.584 0 0 0 .367 7.141q.75 14.125 1.75 27.875 1 13.75 1.75 28a23.03 23.03 0 0 0 .817 4.9q1.23 4.268 4.183 6.975a18.596 18.596 0 0 0 4.241 2.86q2.118 1.066 4.763 1.867a45.641 45.641 0 0 0 4.746 1.148q3.534.624 5.513 1.42a10.026 10.026 0 0 1 .737.33 4.92 4.92 0 0 1 .945.603q.552.458.816 1.025a2.629 2.629 0 0 1 .239 1.122 1.865 1.865 0 0 1 -.861 1.592q-.451.318-1.139.533a11.708 11.708 0 0 1 -1.599.368q-1.569.257-3.651.257a212.234 212.234 0 0 1 -3.226-.023q-4.311-.066-7.457-.316a69.595 69.595 0 0 1 -.442-.036 377.041 377.041 0 0 0 -6.351-.492 328.39 328.39 0 0 0 -2.024-.133 113.022 113.022 0 0 0 -3.246-.152q-1.455-.049-3.081-.074a228.411 228.411 0 0 0 -3.423-.024q-4.94 0-8.294.244a62.815 62.815 0 0 0 -.081.006 291.551 291.551 0 0 0 -3.5.281 359.654 359.654 0 0 0 -3.75.344 64.24 64.24 0 0 1 -2.702.198q-2.821.152-6.644.173a228.27 228.27 0 0 1 -1.279.004 28.089 28.089 0 0 1 -1.909-.061q-.983-.067-1.818-.208a11.58 11.58 0 0 1 -1.523-.356 4.643 4.643 0 0 1 -.827-.341q-.431-.233-.703-.536a1.801 1.801 0 0 1 -.47-1.248 2.82 2.82 0 0 1 .882-2.049q.446-.448 1.118-.826 2-1.125 6.25-1.625a22.877 22.877 0 0 0 3.723-.81q1.982-.622 3.471-1.588a9.583 9.583 0 0 0 2.806-2.727q2.75-4.125 2.75-12.875a1488.958 1488.958 0 0 0 -.092-16.998q-.092-8.067-.277-15.273a908.4 908.4 0 0 0 -.006-.229q-.375-14.5-1.125-28.625-.75-14.125-1.5-30.875a9.215 9.215 0 0 0 -.118-.877q-.333-1.753-1.275-1.753a1.073 1.073 0 0 0 -.107.005 1.689 1.689 0 0 0 -.82.338q-.84.607-1.68 2.287l-57.5 117.25a2.023 2.023 0 0 1 -1.289 1.191q-.368.127-.828.173a4.891 4.891 0 0 1 -.133.011q-1.408.101-2.006-1.012a3.07 3.07 0 0 1 -.244-.613q-9.75-29.25-20.875-57.625a1946.314 1946.314 0 0 0 -11.843-29.469 2458.125 2458.125 0 0 0 -13.282-31.656 2.385 2.385 0 0 0 -.357-.625q-.509-.625-1.393-.625-1.049 0-1.394.881a2.193 2.193 0 0 0 -.106.369 103280.54 103280.54 0 0 0 -2.156 16.781 78932.297 78932.297 0 0 0 -1.969 15.344q-1.875 14.625-2.875 28.875-1 14.25-1 31.25 0 6.75 4.25 12.375a18.229 18.229 0 0 0 9.44 6.488 24.323 24.323 0 0 0 2.56.637q3.534.624 5.513 1.42a10.026 10.026 0 0 1 .737.33 4.92 4.92 0 0 1 .945.603q.552.458.816 1.025a2.629 2.629 0 0 1 .239 1.122 1.865 1.865 0 0 1 -.861 1.592q-.451.318-1.139.533a11.708 11.708 0 0 1 -1.599.368q-1.569.257-3.651.257a200.022 200.022 0 0 1 -3.164-.023q-4.429-.071-6.961-.352-3.375-.375-6-.625-2.009-.191-5.265-.236a153.469 153.469 0 0 0 -2.11-.014q-3.709 0-6.059.17a34.396 34.396 0 0 0 -.941.08q-2.148.215-4.85.522a533.185 533.185 0 0 0 -.9.103 39.958 39.958 0 0 1 -1.843.164q-2.115.144-5.15.19a200.654 200.654 0 0 1 -3.007.021 28.089 28.089 0 0 1 -1.909-.061q-.983-.067-1.818-.208a11.58 11.58 0 0 1 -1.523-.356 4.643 4.643 0 0 1 -.827-.341q-.431-.233-.703-.536a1.801 1.801 0 0 1 -.47-1.248 2.677 2.677 0 0 1 1.011-2.109q.411-.352.989-.641 2-1 6.25-1.75 6.25-1.25 10.25-6 4-4.75 5.25-13.5a2069.108 2069.108 0 0 0 2.813-21.969 1775.803 1775.803 0 0 0 2.437-20.906 1682.128 1682.128 0 0 0 1.975-18.8q.941-9.507 1.65-17.95a534.446 534.446 0 0 0 .602-7.82q.773-11.18.773-19.055v-4.25a34.894 34.894 0 0 0 -.048-1.873q-.05-.928-.152-1.752a20.464 20.464 0 0 0 -.05-.375 38.443 38.443 0 0 0 -.571-3.333 43.378 43.378 0 0 0 -.179-.792 5.664 5.664 0 0 0 -.82-1.835q-.459-.692-1.142-1.369a12.977 12.977 0 0 0 -1.038-.921q-3.832-3.193-7.482-4.664a19.221 19.221 0 0 0 -1.268-.461 58.853 58.853 0 0 0 -4.006-1.131q-2.759-.681-5.994-1.244a10.235 10.235 0 0 1 -1.866-.551q-1.126-.46-1.964-1.174a6.312 6.312 0 0 1 -.17-.15 5.17 5.17 0 0 1 -.912-1.081 3.811 3.811 0 0 1 -.588-2.044 2.454 2.454 0 0 1 .21-1.044q.458-.986 1.918-1.286a5.457 5.457 0 0 1 .247-.045q1.596-.252 3.812-.335a62.233 62.233 0 0 1 2.313-.04q2.5 0 7.625.25 5.125.25 11.125.75a366.718 366.718 0 0 0 5.782.438 288.593 288.593 0 0 0 5.343.312q5.08.248 7.58.25a50.503 50.503 0 0 0 .045 0q.889 0 1.649.258a4.426 4.426 0 0 1 1.351.742 4.523 4.523 0 0 1 1.156 1.417q.314.584.521 1.31a8.42 8.42 0 0 1 .073.273q1.25 4.5 2.5 9.5 1.25 5 3 9.75z" fill="#ba3925" fill-rule="evenodd" stroke="#ba3925" stroke-linecap="round" stroke-width=".25mm" transform="translate(2.119326 24.52363)"/>
</svg>
